<svg width="48" height="31" viewBox="0 0 48 31" fill="none" xmlns="http://www.w3.org/2000/svg">
<path d="M42.5261 12.9541C42.8096 12.2562 42.7442 12.4525 42.8532 12.1036C43.5075 9.46479 42.1118 6.71695 39.582 5.71377L35.1985 3.96911C34.1954 3.57656 33.1268 3.51113 32.1236 3.70741C31.8837 2.98773 31.4911 2.33348 30.9895 1.76647C29.9428 0.63244 28.4816 0 26.955 0H21.045C19.4966 0 18.0354 0.63244 17.0105 1.76647C16.4871 2.33348 16.0945 2.98773 15.8546 3.6856C14.8514 3.48932 13.7828 3.55475 12.7796 3.9473L8.39618 5.69196C5.86642 6.69514 4.4707 9.44298 5.12494 12.0818L5.45207 12.9105C0.218082 23.0077 0 23.0077 0 24.8178C0 26.8024 1.00318 28.6124 2.70423 29.6592C5.801 31.5784 8.13448 29.9646 11.4275 28.3289H36.5725C39.8873 29.9864 40.6288 30.5316 42.308 30.5316C44.4889 30.5316 48 28.8523 48 24.8396C47.9782 22.9859 47.7165 22.9205 42.5261 12.9541ZM41.6974 26.0173L38.0336 24.1854L40.3889 18.2971L43.4639 24.2072C44.0745 25.363 42.8314 26.5843 41.6974 26.0173ZM30.7279 23.9673L32.08 8.91958C32.1454 8.19991 32.8869 7.74194 33.5629 8.00363L37.9464 9.7483C38.4262 9.94457 38.6879 10.4244 38.6224 10.9259L33.3885 23.9673H30.7279ZM14.5679 23.9673L9.33394 10.9259C9.26851 10.4244 9.53021 9.94457 10.01 9.7483L14.3935 8.00363C15.0695 7.74194 15.811 8.1781 15.8764 8.91958L17.2285 23.9673H14.5679ZM4.51431 24.2072L7.58928 18.2753L9.94457 24.1854L6.28078 26.0173C5.14675 26.5843 3.90368 25.363 4.51431 24.2072ZM19.9546 5.5393C19.9425 5.38894 19.9618 5.23772 20.0111 5.09518C20.0605 4.95265 20.1389 4.82191 20.2414 4.71123C20.3439 4.60054 20.4682 4.51233 20.6065 4.45216C20.7448 4.39199 20.8941 4.36117 21.045 4.36165H26.955C27.1059 4.36117 27.2552 4.39199 27.3935 4.45216C27.5318 4.51233 27.6561 4.60054 27.7586 4.71123C27.8611 4.82191 27.9395 4.95265 27.9889 5.09518C28.0382 5.23772 28.0575 5.38894 28.0454 5.5393L26.3662 23.9673H21.6338L19.9546 5.5393Z" fill="#F2F2F0"/>
</svg>
