<svg width="54" height="54" viewBox="0 0 54 54" fill="none" xmlns="http://www.w3.org/2000/svg">
<path d="M29.668 10.0628C22.0891 2.48397 11.5555 0.729252 6.14199 6.14273M6.14199 6.14273C0.728504 11.5562 2.48588 22.0872 10.0621 29.666M6.14199 6.14273C6.79534 9.41215 10.2594 16.5297 18.889 18.8817M19.5637 47.7705C25.1265 53.3333 35.9535 51.5306 43.743 43.7411C51.5299 35.9515 53.3353 25.1273 47.7698 19.5618C44.415 20.2311 37.0922 23.7912 34.6734 32.6555C31.22 45.3225 23.5905 46.4238 19.561 47.7679M19.5664 47.7732C14.0035 42.2077 15.8062 31.3834 23.5958 23.5939C31.3853 15.807 42.2096 14.0016 47.7751 19.5671" stroke="#F2F2F0" stroke-width="4.5" stroke-linecap="round" stroke-linejoin="round"/>
</svg>
