<svg width="52" height="52" viewBox="0 0 52 52" fill="none" xmlns="http://www.w3.org/2000/svg">
<path d="M2 31.3333C4.21333 33.0453 7.53867 34.0453 11.3333 34C15.128 34.0453 18.4533 33.0453 20.6667 31.3333C22.88 29.6213 26.2053 28.6213 30 28.6667C33.7947 28.6213 37.12 29.6213 39.3333 31.3333M15.3333 2C14.4894 2.60579 13.8055 3.40792 13.3409 4.33713C12.8763 5.26634 12.6449 6.29468 12.6667 7.33333C12.6449 8.37199 12.8763 9.40033 13.3409 10.3295C13.8055 11.2587 14.4894 12.0609 15.3333 12.6667M26 2C25.156 2.60579 24.4722 3.40792 24.0076 4.33713C23.543 5.26634 23.3116 6.29468 23.3333 7.33333C23.3116 8.37199 23.543 9.40033 24.0076 10.3295C24.4722 11.2587 25.156 12.0609 26 12.6667" stroke="#F2F2F0" stroke-width="4" stroke-linecap="round" stroke-linejoin="round"/>
<path d="M2 20.6666H39.3333V34C39.3333 38.2434 37.6476 42.3131 34.647 45.3137C31.6465 48.3143 27.5768 50 23.3333 50H18C13.7565 50 9.68687 48.3143 6.68629 45.3137C3.68571 42.3131 2 38.2434 2 34V20.6666Z" stroke="#F2F2F0" stroke-width="4" stroke-linecap="round" stroke-linejoin="round"/>
<path d="M38.6562 38.6027C39.8472 39.1494 41.1542 39.3952 42.4623 39.3184C43.7705 39.2417 45.0398 38.8448 46.1587 38.1626C47.2775 37.4804 48.2116 36.5338 48.8789 35.406C49.5462 34.2782 49.9263 33.0038 49.9857 31.6947C50.0451 30.3856 49.782 29.082 49.2195 27.8984C48.6571 26.7149 47.8125 25.6876 46.76 24.9069C45.7075 24.1262 44.4794 23.616 43.1835 23.4211C41.8877 23.2262 40.5638 23.3527 39.3282 23.7893" stroke="#F2F2F0" stroke-width="4" stroke-linecap="round" stroke-linejoin="round"/>
</svg>
