<svg width="48" height="48" viewBox="0 0 48 48" fill="none" xmlns="http://www.w3.org/2000/svg">
<g clip-path="url(#clip0_2_1165)">
<path d="M42 10.3599V33.9999C41.9996 35.7609 41.4182 37.4726 40.3459 38.8695C39.2736 40.2664 37.7703 41.2704 36.0693 41.7259C34.3682 42.1814 32.5644 42.0629 30.9375 41.3888C29.3106 40.7146 27.9517 39.5225 27.0713 37.9974C26.191 36.4722 25.8385 34.6992 26.0685 32.9533C26.2985 31.2074 27.0982 29.5861 28.3435 28.341C29.5887 27.0958 31.2101 26.2964 32.956 26.0666C34.702 25.8368 36.4749 26.1894 38 27.0699V18.3619L18 21.6939V35.9999C18 36.1199 17.99 36.2339 17.97 36.3479C18.1136 37.8859 17.7444 39.4282 16.9201 40.7344C16.0957 42.0407 14.8625 43.0376 13.4124 43.5699C11.9624 44.1022 10.377 44.1399 8.90333 43.6772C7.42962 43.2144 6.15035 42.2773 5.26483 41.0117C4.37931 39.7461 3.93726 38.2231 4.00756 36.68C4.07787 35.137 4.65657 33.6605 5.65351 32.4807C6.65045 31.3009 8.00964 30.4839 9.51932 30.1571C11.029 29.8303 12.6044 30.012 14 30.6739V13.6939C13.9999 12.7471 14.3357 11.8308 14.9476 11.1083C15.5596 10.3857 16.408 9.9037 17.342 9.74794L37.342 6.41594C37.9149 6.32039 38.5018 6.35077 39.0618 6.50495C39.6218 6.65913 40.1415 6.93342 40.5848 7.30875C41.028 7.68408 41.3843 8.15145 41.6287 8.67837C41.8731 9.20528 41.9998 9.7791 42 10.3599ZM11 33.9999C10.2043 33.9999 9.44129 34.316 8.87868 34.8786C8.31607 35.4412 8 36.2043 8 36.9999C8 37.7956 8.31607 38.5587 8.87868 39.1213C9.44129 39.6839 10.2043 39.9999 11 39.9999C11.7956 39.9999 12.5587 39.6839 13.1213 39.1213C13.6839 38.5587 14 37.7956 14 36.9999C14 36.2043 13.6839 35.4412 13.1213 34.8786C12.5587 34.316 11.7956 33.9999 11 33.9999ZM34 29.9999C32.9391 29.9999 31.9217 30.4214 31.1716 31.1715C30.4214 31.9217 30 32.9391 30 33.9999C30 35.0608 30.4214 36.0782 31.1716 36.8284C31.9217 37.5785 32.9391 37.9999 34 37.9999C35.0609 37.9999 36.0783 37.5785 36.8284 36.8284C37.5786 36.0782 38 35.0608 38 33.9999C38 32.9391 37.5786 31.9217 36.8284 31.1715C36.0783 30.4214 35.0609 29.9999 34 29.9999ZM38 10.3599L18 13.6939V17.6399L38 14.3059V10.3599Z" fill="#F2F2F0"/>
</g>
<defs>
<clipPath id="clip0_2_1165">
<rect width="48" height="48" fill="white"/>
</clipPath>
</defs>
</svg>
