<svg width="18" height="24" viewBox="0 0 18 24" fill="none" xmlns="http://www.w3.org/2000/svg">
<path d="M8.57143 11.4C7.75954 11.4 6.98091 11.0839 6.40682 10.5213C5.83273 9.95871 5.5102 9.19565 5.5102 8.4C5.5102 7.60435 5.83273 6.84129 6.40682 6.27868C6.98091 5.71607 7.75954 5.4 8.57143 5.4C9.38332 5.4 10.162 5.71607 10.736 6.27868C11.3101 6.84129 11.6327 7.60435 11.6327 8.4C11.6327 8.79397 11.5535 9.18407 11.3996 9.54805C11.2458 9.91203 11.0203 10.2427 10.736 10.5213C10.4518 10.7999 10.1143 11.0209 9.74291 11.1716C9.3715 11.3224 8.97343 11.4 8.57143 11.4ZM8.57143 0C6.29814 0 4.11797 0.884997 2.51051 2.4603C0.903059 4.03561 0 6.17218 0 8.4C0 14.7 8.57143 24 8.57143 24C8.57143 24 17.1429 14.7 17.1429 8.4C17.1429 6.17218 16.2398 4.03561 14.6323 2.4603C13.0249 0.884997 10.8447 0 8.57143 0Z" fill="#2E3538"/>
</svg>
