<svg width="30" height="30" viewBox="0 0 30 30" fill="none" xmlns="http://www.w3.org/2000/svg">
<path d="M12.7931 2.6531C13.071 2.34276 13.4112 2.09451 13.7915 1.92455C14.1718 1.75459 14.5837 1.66675 15.0003 1.66675C15.4168 1.66675 15.8287 1.75459 16.209 1.92455C16.5893 2.09451 16.9295 2.34276 17.2074 2.6531L18.2443 3.81147C18.5406 4.14253 18.9077 4.40269 19.3182 4.5727C19.7287 4.7427 20.1722 4.81818 20.6158 4.79356L22.1712 4.70765C22.5872 4.68472 23.0034 4.74979 23.3925 4.89862C23.7817 5.04745 24.1351 5.27669 24.4296 5.57138C24.7242 5.86606 24.9532 6.21955 25.1019 6.60878C25.2505 6.99801 25.3154 7.41421 25.2923 7.83021L25.2064 9.38409C25.182 9.82749 25.2576 10.2707 25.4275 10.6809C25.5975 11.0912 25.8576 11.458 26.1885 11.7542L27.3468 12.7911C27.6574 13.0689 27.9059 13.4092 28.076 13.7897C28.2461 14.1701 28.334 14.5822 28.334 14.9989C28.334 15.4157 28.2461 15.8277 28.076 16.2082C27.9059 16.5886 27.6574 16.9289 27.3468 17.2068L26.1885 18.2437C25.8574 18.54 25.5972 18.9071 25.4272 19.3176C25.2572 19.7281 25.1817 20.1716 25.2064 20.6152L25.2923 22.1706C25.3152 22.5866 25.2501 23.0028 25.1013 23.3919C24.9525 23.7811 24.7232 24.1345 24.4285 24.429C24.1339 24.7236 23.7804 24.9526 23.3911 25.1013C23.0019 25.2499 22.5857 25.3148 22.1697 25.2917L20.6158 25.2058C20.1724 25.1814 19.7292 25.257 19.319 25.427C18.9087 25.597 18.542 25.857 18.2458 26.1879L17.2089 27.3462C16.931 27.6568 16.5907 27.9053 16.2102 28.0754C15.8298 28.2455 15.4177 28.3334 15.001 28.3334C14.5842 28.3334 14.1722 28.2455 13.7917 28.0754C13.4113 27.9053 13.071 27.6568 12.7931 27.3462L11.7562 26.1879C11.4599 25.8568 11.0928 25.5966 10.6823 25.4266C10.2718 25.2566 9.82831 25.1811 9.38467 25.2058L7.82932 25.2917C7.4133 25.3146 6.99713 25.2495 6.60797 25.1007C6.21882 24.9519 5.86543 24.7226 5.57089 24.428C5.27635 24.1333 5.04727 23.7798 4.89863 23.3906C4.74998 23.0013 4.6851 22.5851 4.70823 22.1691L4.79415 20.6152C4.81854 20.1718 4.74295 19.7286 4.57295 19.3184C4.40296 18.9081 4.14291 18.5414 3.81205 18.2452L2.65368 17.2083C2.3431 16.9304 2.09464 16.5901 1.92454 16.2097C1.75443 15.8292 1.6665 15.4172 1.6665 15.0004C1.6665 14.5837 1.75443 14.1716 1.92454 13.7912C2.09464 13.4107 2.3431 13.0704 2.65368 12.7925L3.81205 11.7556C4.14311 11.4593 4.40328 11.0923 4.57328 10.6817C4.74328 10.2712 4.81877 9.82773 4.79415 9.38409L4.70823 7.82873C4.68552 7.41284 4.75075 6.99683 4.89968 6.60785C5.04861 6.21888 5.27788 5.86567 5.57254 5.57129C5.8672 5.27691 6.22062 5.04798 6.60974 4.89942C6.99886 4.75086 7.41493 4.68602 7.8308 4.70913L9.38467 4.79505C9.82807 4.81944 10.2713 4.74384 10.6815 4.57385C11.0918 4.40386 11.4585 4.14381 11.7547 3.81295L12.7931 2.6531Z" stroke="#2E3538" stroke-width="3"/>
<path d="M11.2969 11.2964H11.3117V11.3112H11.2969V11.2964ZM18.7033 18.7028H18.7181V18.7177H18.7033V18.7028Z" stroke="#2E3538" stroke-width="3" stroke-linejoin="round"/>
<path d="M19.4439 10.5559L10.5562 19.4437" stroke="#2E3538" stroke-width="3" stroke-linecap="round" stroke-linejoin="round"/>
</svg>
