<svg width="28" height="28" viewBox="0 0 28 28" fill="none" xmlns="http://www.w3.org/2000/svg">
<path d="M3.33317 15.3334V18.0001H24.6665V15.3334H3.33317ZM3.33317 0.666748H24.6665C25.3998 0.666748 26.0278 0.928081 26.5505 1.45075C27.0732 1.97341 27.3341 2.60097 27.3332 3.33341V18.0001C27.3332 18.7334 27.0723 19.3614 26.5505 19.8841C26.0287 20.4067 25.4007 20.6676 24.6665 20.6667H19.3332V27.3334L13.9998 24.6667L8.6665 27.3334V20.6667H3.33317C2.59984 20.6667 1.97228 20.4059 1.4505 19.8841C0.928726 19.3623 0.667393 18.7343 0.666504 18.0001V3.33341C0.666504 2.60008 0.927837 1.97253 1.4505 1.45075C1.97317 0.92897 2.60073 0.667637 3.33317 0.666748ZM3.33317 11.3334H24.6665V3.33341H3.33317V11.3334Z" fill="#2E3538"/>
</svg>
