<svg width="28" height="24" viewBox="0 0 28 24" fill="none" xmlns="http://www.w3.org/2000/svg">
<path fill-rule="evenodd" clip-rule="evenodd" d="M7.78324 4.21346C10.719 2.99678 13.9497 2.67831 17.0665 3.29834C20.1834 3.91837 23.0462 5.44903 25.2929 7.69664C25.4297 7.84356 25.5948 7.9614 25.7783 8.04313C25.9617 8.12486 26.1597 8.16881 26.3605 8.17235C26.5613 8.17589 26.7607 8.13896 26.9469 8.06375C27.1331 7.98854 27.3022 7.8766 27.4442 7.7346C27.5862 7.59261 27.6982 7.42346 27.7734 7.23727C27.8486 7.05107 27.8855 6.85163 27.882 6.65085C27.8784 6.45006 27.8345 6.25205 27.7528 6.06862C27.671 5.8852 27.5532 5.72011 27.4063 5.58321C25.637 3.81316 23.5363 2.40904 21.2241 1.45106C18.912 0.493075 16.4339 0 13.9311 0C11.4284 0 8.95024 0.493075 6.63814 1.45106C4.32603 2.40904 2.22532 3.81316 0.456 5.58321C0.313245 5.72122 0.199405 5.88628 0.121122 6.06875C0.0428393 6.25123 0.00168157 6.44747 5.04599e-05 6.64602C-0.00158065 6.84457 0.0363475 7.04146 0.111622 7.2252C0.186896 7.40893 0.298009 7.57584 0.438478 7.71618C0.578947 7.85651 0.745957 7.96747 0.929766 8.04257C1.11357 8.11767 1.3105 8.15541 1.50905 8.1536C1.7076 8.15178 1.9038 8.11043 2.0862 8.03198C2.2686 7.95352 2.43355 7.83953 2.57143 7.69664C4.06307 6.20456 5.83407 5.02096 7.78324 4.21346ZM13.9321 8.65766C12.4798 8.65763 11.0418 8.94475 9.70081 9.50249C8.35983 10.0602 7.14236 10.8776 6.11841 11.9076C5.83868 12.1889 5.45866 12.3476 5.06194 12.3487C4.66522 12.3498 4.2843 12.1933 4.00298 11.9135C3.72167 11.6338 3.56299 11.2538 3.56187 10.8571C3.56075 10.4603 3.71727 10.0794 3.997 9.79812C5.29902 8.48864 6.84706 7.44948 8.5521 6.74038C10.2571 6.03127 12.0855 5.66623 13.9321 5.66623C15.7788 5.66623 17.6071 6.03127 19.3122 6.74038C21.0172 7.44948 22.5653 8.48864 23.8673 9.79812C24.147 10.0794 24.3035 10.4603 24.3024 10.8571C24.3013 11.2538 24.1426 11.6338 23.8613 11.9135C23.58 12.1933 23.1991 12.3498 22.8023 12.3487C22.4056 12.3476 22.0256 12.1889 21.7459 11.9076C20.7219 10.8776 19.5044 10.0602 18.1635 9.50249C16.8225 8.94475 15.3845 8.65763 13.9321 8.65766ZM11.9782 14.5175C12.9368 14.1129 13.9951 14.0068 15.0149 14.2131C16.0347 14.4194 16.9685 14.9285 17.6945 15.6739C17.9713 15.9581 18.3497 16.1207 18.7464 16.1259C19.1431 16.1312 19.5257 15.9786 19.8099 15.7018C20.0941 15.425 20.2567 15.0466 20.262 14.6498C20.2672 14.2531 20.1146 13.8706 19.8378 13.5863C19.0772 12.8054 18.1679 12.1846 17.1636 11.7608C16.1592 11.3369 15.0801 11.1186 13.99 11.1186C12.8998 11.1186 11.8207 11.3369 10.8164 11.7608C9.81199 12.1846 8.90269 12.8054 8.14213 13.5863C7.86504 13.8703 7.7121 14.2527 7.71697 14.6494C7.72183 15.0462 7.88409 15.4247 8.16805 15.7018C8.45201 15.9789 8.83441 16.1318 9.23113 16.1269C9.62785 16.1221 10.0064 15.9598 10.2835 15.6759C10.766 15.1814 11.3422 14.7866 11.9782 14.5195V14.5175ZM10.758 20.8259C10.758 19.984 11.0924 19.1767 11.6877 18.5814C12.283 17.9861 13.0903 17.6517 13.9321 17.6517C14.774 17.6517 15.5813 17.9861 16.1766 18.5814C16.7719 19.1767 17.1063 19.984 17.1063 20.8259C17.1063 21.6677 16.7719 22.475 16.1766 23.0703C15.5813 23.6656 14.774 24 13.9321 24C13.0903 24 12.283 23.6656 11.6877 23.0703C11.0924 22.475 10.758 21.6677 10.758 20.8259Z" fill="#2E3538"/>
</svg>
