<svg width="78" height="78" viewBox="0 0 78 78" fill="none" xmlns="http://www.w3.org/2000/svg">
<path d="M39 0C60.5397 0 78 17.4603 78 39C78 60.5397 60.5397 77.9999 39 77.9999C32.1078 78.0118 25.3367 76.1878 19.383 72.7154L0.0156603 77.9999L5.28846 58.6248C1.8134 52.6692 -0.0120183 45.8952 5.95478e-05 39C5.95478e-05 17.4603 17.4604 0 39 0ZM25.7088 20.67L24.9288 20.7012C24.4245 20.7359 23.9318 20.8684 23.478 21.0912C23.0552 21.3311 22.669 21.6305 22.3314 21.9804C21.8634 22.4211 21.5982 22.8033 21.3135 23.1738C19.871 25.0493 19.0943 27.3519 19.1061 29.718C19.1139 31.629 19.6131 33.4893 20.3931 35.2287C21.9882 38.7465 24.6129 42.471 28.0761 45.9225C28.9107 46.7532 29.7297 47.5878 30.6111 48.3639C34.9145 52.1523 40.0424 54.8845 45.5871 56.3433L47.8023 56.6826C48.5238 56.7216 49.2453 56.667 49.9707 56.6319C51.1063 56.572 52.2151 56.2645 53.2194 55.731C53.7297 55.4671 54.2281 55.1808 54.7131 54.873C54.7131 54.873 54.8782 54.7612 55.2006 54.522C55.7271 54.132 56.0508 53.8551 56.4876 53.3988C56.8152 53.0608 57.0882 52.6682 57.3066 52.221C57.6108 51.5853 57.915 50.3724 58.0398 49.3623C58.1334 48.5901 58.1061 48.1689 58.0944 47.9076C58.0788 47.4903 57.7317 47.0574 57.3534 46.8741L55.0836 45.8562C55.0836 45.8562 51.6906 44.3781 49.6158 43.4343C49.3986 43.3397 49.166 43.2855 48.9294 43.2744C48.6626 43.2464 48.3928 43.2762 48.1385 43.3617C47.8841 43.4471 47.6511 43.5863 47.4552 43.7697C47.4357 43.7619 47.1744 43.9842 44.3547 47.4006C44.1929 47.618 43.97 47.7824 43.7144 47.8727C43.4588 47.963 43.1821 47.9751 42.9195 47.9076C42.6654 47.8398 42.4164 47.7538 42.1746 47.6502C41.691 47.4474 41.5233 47.3694 41.1918 47.229C38.9527 46.2536 36.8801 44.9337 35.0493 43.3173C34.5579 42.8883 34.1016 42.4203 33.6336 41.9679C32.0994 40.4984 30.7623 38.8361 29.6556 37.0227L29.4255 36.6522C29.2628 36.4018 29.1293 36.1335 29.0277 35.8527C28.8795 35.2794 29.2656 34.8192 29.2656 34.8192C29.2656 34.8192 30.2133 33.7818 30.654 33.2202C31.083 32.6742 31.4457 32.1438 31.6797 31.7655C32.1399 31.0245 32.2842 30.264 32.0424 29.6751C30.9504 27.0075 29.822 24.3542 28.6572 21.7152C28.4271 21.1926 27.7446 20.8182 27.1245 20.7441C26.9139 20.7181 26.7033 20.6973 26.4927 20.6817C25.9691 20.6516 25.444 20.6569 24.921 20.6973L25.7088 20.67Z" fill="#2E3538"/>
</svg>
