<svg width="22" height="22" viewBox="0 0 22 22" fill="none" xmlns="http://www.w3.org/2000/svg">
<path d="M11 0C17.0753 0 22 4.9247 22 11C22 17.0753 17.0753 22 11 22C9.05604 22.0033 7.14625 21.4889 5.46701 20.5095L0.004417 22L1.49162 16.5352C0.511471 14.8554 -0.00338979 12.9448 1.67955e-05 11C1.67955e-05 4.9247 4.92471 0 11 0ZM7.25121 5.83L7.03121 5.8388C6.88897 5.8486 6.74999 5.88596 6.62201 5.9488C6.50274 6.01646 6.39383 6.10092 6.29861 6.1996C6.16661 6.3239 6.09181 6.43169 6.01151 6.5362C5.60465 7.06519 5.38558 7.71464 5.38891 8.38199C5.39111 8.92099 5.53191 9.44569 5.75191 9.93629C6.20181 10.9285 6.94211 11.979 7.91891 12.9525C8.15431 13.1868 8.38531 13.4222 8.63391 13.6411C9.84768 14.7096 11.294 15.4803 12.8579 15.8917L13.4827 15.9874C13.6862 15.9984 13.8897 15.983 14.0943 15.9731C14.4146 15.9562 14.7273 15.8695 15.0106 15.719C15.1545 15.6446 15.2951 15.5638 15.4319 15.477C15.4319 15.477 15.4785 15.4455 15.5694 15.378C15.7179 15.268 15.8092 15.1899 15.9324 15.0612C16.0248 14.9659 16.1018 14.8551 16.1634 14.729C16.2492 14.5497 16.335 14.2076 16.3702 13.9227C16.3966 13.7049 16.3889 13.5861 16.3856 13.5124C16.3812 13.3947 16.2833 13.2726 16.1766 13.2209L15.5364 12.9338C15.5364 12.9338 14.5794 12.5169 13.9942 12.2507C13.9329 12.224 13.8673 12.2087 13.8006 12.2056C13.7253 12.1977 13.6493 12.2061 13.5775 12.2302C13.5058 12.2543 13.4401 12.2936 13.3848 12.3453C13.3793 12.3431 13.3056 12.4058 12.5103 13.3694C12.4647 13.4307 12.4018 13.4771 12.3297 13.5026C12.2576 13.528 12.1796 13.5314 12.1055 13.5124C12.0338 13.4933 11.9636 13.469 11.8954 13.4398C11.759 13.3826 11.7117 13.3606 11.6182 13.321C10.9867 13.0459 10.4021 12.6736 9.88571 12.2177C9.74711 12.0967 9.61841 11.9647 9.48641 11.8371C9.05368 11.4226 8.67654 10.9538 8.36441 10.4423L8.29951 10.3378C8.2536 10.2672 8.21595 10.1915 8.18731 10.1123C8.14551 9.95059 8.25441 9.82079 8.25441 9.82079C8.25441 9.82079 8.52171 9.52819 8.64601 9.36979C8.76701 9.21579 8.86931 9.06619 8.93531 8.95949C9.06511 8.75049 9.10581 8.53599 9.03761 8.36989C8.72961 7.61749 8.41134 6.86913 8.08281 6.1248C8.01791 5.9774 7.82541 5.8718 7.65051 5.8509C7.59111 5.84356 7.53171 5.8377 7.47231 5.8333C7.32461 5.82482 7.17651 5.82629 7.02901 5.8377L7.25121 5.83Z" fill="#F2F2F0"/>
</svg>
